<mxfile host="Electron" modified="2023-07-03T12:11:14.573Z" agent="Mozilla/5.0 (Windows NT 10.0; Win64; x64) AppleWebKit/537.36 (KHTML, like Gecko) draw.io/21.2.8 Chrome/112.0.5615.165 Electron/24.2.0 Safari/537.36" etag="ra5TPz2KI_kfgVFJ8rL_" version="21.2.8" type="device">
  <diagram name="Page-1" id="F-fchwOXcRIv6on6uKuA">
    <mxGraphModel dx="1036" dy="654" grid="1" gridSize="10" guides="1" tooltips="1" connect="1" arrows="1" fold="1" page="1" pageScale="1" pageWidth="850" pageHeight="1100" math="0" shadow="0">
      <root>
        <mxCell id="0" />
        <mxCell id="1" parent="0" />
        <mxCell id="Eq9UN5rmPfJ1JUZl9F5J-8" value="" style="rounded=0;whiteSpace=wrap;html=1;" parent="1" vertex="1">
          <mxGeometry x="235" y="80" width="380" height="600" as="geometry" />
        </mxCell>
        <mxCell id="Eq9UN5rmPfJ1JUZl9F5J-1" value="" style="ellipse;whiteSpace=wrap;html=1;" parent="1" vertex="1">
          <mxGeometry x="353" y="134" width="145" height="60" as="geometry" />
        </mxCell>
        <mxCell id="Eq9UN5rmPfJ1JUZl9F5J-2" value="" style="ellipse;whiteSpace=wrap;html=1;" parent="1" vertex="1">
          <mxGeometry x="353" y="224" width="145" height="60" as="geometry" />
        </mxCell>
        <mxCell id="Eq9UN5rmPfJ1JUZl9F5J-3" value="" style="ellipse;whiteSpace=wrap;html=1;" parent="1" vertex="1">
          <mxGeometry x="353" y="314" width="145" height="60" as="geometry" />
        </mxCell>
        <mxCell id="Eq9UN5rmPfJ1JUZl9F5J-4" value="" style="ellipse;whiteSpace=wrap;html=1;" parent="1" vertex="1">
          <mxGeometry x="353" y="404" width="145" height="60" as="geometry" />
        </mxCell>
        <mxCell id="Eq9UN5rmPfJ1JUZl9F5J-5" value="" style="ellipse;whiteSpace=wrap;html=1;" parent="1" vertex="1">
          <mxGeometry x="353" y="494" width="145" height="60" as="geometry" />
        </mxCell>
        <mxCell id="Eq9UN5rmPfJ1JUZl9F5J-6" value="" style="ellipse;whiteSpace=wrap;html=1;" parent="1" vertex="1">
          <mxGeometry x="353" y="584" width="145" height="60" as="geometry" />
        </mxCell>
        <mxCell id="Eq9UN5rmPfJ1JUZl9F5J-9" value="Admin" style="shape=umlActor;verticalLabelPosition=bottom;verticalAlign=top;html=1;outlineConnect=0;" parent="1" vertex="1">
          <mxGeometry x="70" y="327" width="50" height="106" as="geometry" />
        </mxCell>
        <mxCell id="Eq9UN5rmPfJ1JUZl9F5J-12" value="User" style="shape=umlActor;verticalLabelPosition=bottom;verticalAlign=top;html=1;outlineConnect=0;" parent="1" vertex="1">
          <mxGeometry x="720" y="327" width="50" height="106" as="geometry" />
        </mxCell>
        <mxCell id="Eq9UN5rmPfJ1JUZl9F5J-13" value="" style="endArrow=none;html=1;rounded=0;exitX=1;exitY=0.3333333333333333;exitDx=0;exitDy=0;exitPerimeter=0;entryX=0;entryY=0.5;entryDx=0;entryDy=0;" parent="1" source="Eq9UN5rmPfJ1JUZl9F5J-9" target="Eq9UN5rmPfJ1JUZl9F5J-1" edge="1">
          <mxGeometry width="50" height="50" relative="1" as="geometry">
            <mxPoint x="400" y="410" as="sourcePoint" />
            <mxPoint x="450" y="360" as="targetPoint" />
          </mxGeometry>
        </mxCell>
        <mxCell id="Eq9UN5rmPfJ1JUZl9F5J-14" value="" style="endArrow=none;html=1;rounded=0;exitX=1;exitY=0.3333333333333333;exitDx=0;exitDy=0;exitPerimeter=0;entryX=0;entryY=0.5;entryDx=0;entryDy=0;" parent="1" source="Eq9UN5rmPfJ1JUZl9F5J-9" target="Eq9UN5rmPfJ1JUZl9F5J-2" edge="1">
          <mxGeometry width="50" height="50" relative="1" as="geometry">
            <mxPoint x="130" y="372" as="sourcePoint" />
            <mxPoint x="363" y="174" as="targetPoint" />
          </mxGeometry>
        </mxCell>
        <mxCell id="Eq9UN5rmPfJ1JUZl9F5J-15" value="" style="endArrow=none;html=1;rounded=0;exitX=1;exitY=0.3333333333333333;exitDx=0;exitDy=0;exitPerimeter=0;entryX=0;entryY=0.5;entryDx=0;entryDy=0;" parent="1" source="Eq9UN5rmPfJ1JUZl9F5J-9" target="Eq9UN5rmPfJ1JUZl9F5J-3" edge="1">
          <mxGeometry width="50" height="50" relative="1" as="geometry">
            <mxPoint x="140" y="382" as="sourcePoint" />
            <mxPoint x="373" y="184" as="targetPoint" />
          </mxGeometry>
        </mxCell>
        <mxCell id="Eq9UN5rmPfJ1JUZl9F5J-16" value="" style="endArrow=none;html=1;rounded=0;entryX=0;entryY=0.5;entryDx=0;entryDy=0;exitX=1;exitY=0.3333333333333333;exitDx=0;exitDy=0;exitPerimeter=0;" parent="1" source="Eq9UN5rmPfJ1JUZl9F5J-9" target="Eq9UN5rmPfJ1JUZl9F5J-4" edge="1">
          <mxGeometry width="50" height="50" relative="1" as="geometry">
            <mxPoint x="150" y="392" as="sourcePoint" />
            <mxPoint x="383" y="194" as="targetPoint" />
          </mxGeometry>
        </mxCell>
        <mxCell id="Eq9UN5rmPfJ1JUZl9F5J-17" value="" style="endArrow=none;html=1;rounded=0;exitX=1;exitY=0.3333333333333333;exitDx=0;exitDy=0;exitPerimeter=0;entryX=0;entryY=0.5;entryDx=0;entryDy=0;" parent="1" source="Eq9UN5rmPfJ1JUZl9F5J-9" target="Eq9UN5rmPfJ1JUZl9F5J-5" edge="1">
          <mxGeometry width="50" height="50" relative="1" as="geometry">
            <mxPoint x="160" y="402" as="sourcePoint" />
            <mxPoint x="393" y="204" as="targetPoint" />
          </mxGeometry>
        </mxCell>
        <mxCell id="Eq9UN5rmPfJ1JUZl9F5J-18" value="" style="endArrow=none;html=1;rounded=0;exitX=1;exitY=0.3333333333333333;exitDx=0;exitDy=0;exitPerimeter=0;entryX=0;entryY=0.5;entryDx=0;entryDy=0;" parent="1" source="Eq9UN5rmPfJ1JUZl9F5J-9" target="Eq9UN5rmPfJ1JUZl9F5J-6" edge="1">
          <mxGeometry width="50" height="50" relative="1" as="geometry">
            <mxPoint x="170" y="412" as="sourcePoint" />
            <mxPoint x="403" y="214" as="targetPoint" />
          </mxGeometry>
        </mxCell>
        <mxCell id="Eq9UN5rmPfJ1JUZl9F5J-19" value="" style="endArrow=none;html=1;rounded=0;exitX=0;exitY=0.3333333333333333;exitDx=0;exitDy=0;exitPerimeter=0;entryX=1;entryY=0.5;entryDx=0;entryDy=0;" parent="1" source="Eq9UN5rmPfJ1JUZl9F5J-12" target="Eq9UN5rmPfJ1JUZl9F5J-1" edge="1">
          <mxGeometry width="50" height="50" relative="1" as="geometry">
            <mxPoint x="180" y="422" as="sourcePoint" />
            <mxPoint x="413" y="224" as="targetPoint" />
          </mxGeometry>
        </mxCell>
        <mxCell id="Eq9UN5rmPfJ1JUZl9F5J-20" value="" style="endArrow=none;html=1;rounded=0;exitX=0;exitY=0.3333333333333333;exitDx=0;exitDy=0;exitPerimeter=0;entryX=1;entryY=0.5;entryDx=0;entryDy=0;" parent="1" source="Eq9UN5rmPfJ1JUZl9F5J-12" target="Eq9UN5rmPfJ1JUZl9F5J-2" edge="1">
          <mxGeometry width="50" height="50" relative="1" as="geometry">
            <mxPoint x="190" y="432" as="sourcePoint" />
            <mxPoint x="423" y="234" as="targetPoint" />
          </mxGeometry>
        </mxCell>
        <mxCell id="Eq9UN5rmPfJ1JUZl9F5J-21" value="" style="endArrow=none;html=1;rounded=0;exitX=0;exitY=0.3333333333333333;exitDx=0;exitDy=0;exitPerimeter=0;entryX=1;entryY=0.5;entryDx=0;entryDy=0;" parent="1" source="Eq9UN5rmPfJ1JUZl9F5J-12" target="Eq9UN5rmPfJ1JUZl9F5J-6" edge="1">
          <mxGeometry width="50" height="50" relative="1" as="geometry">
            <mxPoint x="200" y="442" as="sourcePoint" />
            <mxPoint x="433" y="244" as="targetPoint" />
          </mxGeometry>
        </mxCell>
        <mxCell id="Eq9UN5rmPfJ1JUZl9F5J-22" value="Login/Registration" style="text;html=1;strokeColor=none;fillColor=none;align=center;verticalAlign=middle;whiteSpace=wrap;rounded=0;" parent="1" vertex="1">
          <mxGeometry x="395" y="149" width="60" height="30" as="geometry" />
        </mxCell>
        <mxCell id="Eq9UN5rmPfJ1JUZl9F5J-23" value="FFPS Inputs" style="text;html=1;strokeColor=none;fillColor=none;align=center;verticalAlign=middle;whiteSpace=wrap;rounded=0;" parent="1" vertex="1">
          <mxGeometry x="388" y="239" width="75" height="30" as="geometry" />
        </mxCell>
        <mxCell id="Eq9UN5rmPfJ1JUZl9F5J-24" value="Dataset collection" style="text;html=1;strokeColor=none;fillColor=none;align=center;verticalAlign=middle;whiteSpace=wrap;rounded=0;" parent="1" vertex="1">
          <mxGeometry x="368" y="329" width="115" height="30" as="geometry" />
        </mxCell>
        <mxCell id="Eq9UN5rmPfJ1JUZl9F5J-25" value="AI processing" style="text;html=1;strokeColor=none;fillColor=none;align=center;verticalAlign=middle;whiteSpace=wrap;rounded=0;" parent="1" vertex="1">
          <mxGeometry x="383" y="419" width="85" height="30" as="geometry" />
        </mxCell>
        <mxCell id="Eq9UN5rmPfJ1JUZl9F5J-26" value="Database Management" style="text;html=1;strokeColor=none;fillColor=none;align=center;verticalAlign=middle;whiteSpace=wrap;rounded=0;" parent="1" vertex="1">
          <mxGeometry x="348" y="509" width="155" height="30" as="geometry" />
        </mxCell>
        <mxCell id="Eq9UN5rmPfJ1JUZl9F5J-27" value="Final Dataset Result" style="text;html=1;strokeColor=none;fillColor=none;align=center;verticalAlign=middle;whiteSpace=wrap;rounded=0;" parent="1" vertex="1">
          <mxGeometry x="388" y="599" width="75" height="30" as="geometry" />
        </mxCell>
      </root>
    </mxGraphModel>
  </diagram>
</mxfile>
